<svg width="162" height="31" viewBox="0 0 162 31" fill="none" xmlns="http://www.w3.org/2000/svg">
<path d="M10.8409 30H0.528409V0.90909H10.9261C13.8523 0.90909 16.3712 1.49148 18.483 2.65625C20.5947 3.81155 22.2188 5.47348 23.3551 7.64205C24.5009 9.81061 25.0739 12.4053 25.0739 15.4261C25.0739 18.4564 24.5009 21.0606 23.3551 23.2386C22.2188 25.4167 20.5852 27.0881 18.4545 28.2528C16.3333 29.4176 13.7955 30 10.8409 30ZM6.67898 24.7301H10.5852C12.4034 24.7301 13.9328 24.4081 15.1733 23.7642C16.4233 23.1108 17.3608 22.1023 17.9858 20.7386C18.6203 19.3655 18.9375 17.5947 18.9375 15.4261C18.9375 13.2765 18.6203 11.5199 17.9858 10.1562C17.3608 8.79261 16.428 7.78883 15.1875 7.14489C13.947 6.50095 12.4176 6.17898 10.5994 6.17898H6.67898V24.7301ZM39.4595 30.4261C37.2152 30.4261 35.2834 29.9716 33.6641 29.0625C32.0542 28.1439 30.8137 26.8466 29.9425 25.1705C29.0713 23.4848 28.6357 21.4915 28.6357 19.1903C28.6357 16.946 29.0713 14.9763 29.9425 13.2812C30.8137 11.5862 32.04 10.2652 33.6214 9.31818C35.2124 8.37121 37.0779 7.89773 39.218 7.89773C40.6574 7.89773 41.9974 8.12973 43.2379 8.59375C44.4879 9.0483 45.5769 9.73485 46.505 10.6534C47.4425 11.572 48.1716 12.7273 48.6925 14.1193C49.2133 15.5019 49.4737 17.1212 49.4737 18.9773V20.6392H31.0504V16.8892H43.7777C43.7777 16.018 43.5883 15.2462 43.2095 14.5739C42.8307 13.9015 42.3052 13.3759 41.6328 12.9972C40.9699 12.6089 40.1982 12.4148 39.3175 12.4148C38.3989 12.4148 37.5845 12.6278 36.8743 13.054C36.1735 13.4706 35.6243 14.0341 35.2266 14.7443C34.8288 15.4451 34.6252 16.2263 34.6158 17.0881V20.6534C34.6158 21.733 34.8146 22.6657 35.2124 23.4517C35.6196 24.2377 36.1925 24.8438 36.9311 25.2699C37.6697 25.696 38.5457 25.9091 39.5589 25.9091C40.2313 25.9091 40.8468 25.8144 41.4055 25.625C41.9643 25.4356 42.4425 25.1515 42.8402 24.7727C43.2379 24.3939 43.541 23.9299 43.7493 23.3807L49.3459 23.75C49.0618 25.0947 48.4794 26.2689 47.5987 27.2727C46.7275 28.267 45.6006 29.0436 44.218 29.6023C42.8449 30.1515 41.2588 30.4261 39.4595 30.4261ZM73.1776 8.18182L65.5497 30H58.7315L51.1037 8.18182H57.4957L62.027 23.7926H62.2543L66.7713 8.18182H73.1776ZM76.3878 30V0.90909H87.8651C90.0715 0.90909 91.9512 1.33049 93.5043 2.1733C95.0573 3.00663 96.241 4.16667 97.0554 5.65341C97.8793 7.13068 98.2912 8.83523 98.2912 10.767C98.2912 12.6989 97.8745 14.4034 97.0412 15.8807C96.2079 17.358 95.0005 18.5085 93.419 19.3324C91.8471 20.1562 89.9437 20.5682 87.7088 20.5682H80.3935V15.6392H86.7145C87.8982 15.6392 88.8736 15.4356 89.6406 15.0284C90.4171 14.6117 90.9948 14.0388 91.3736 13.3097C91.7618 12.571 91.956 11.7235 91.956 10.767C91.956 9.80114 91.7618 8.95833 91.3736 8.23864C90.9948 7.50947 90.4171 6.94602 89.6406 6.5483C88.8641 6.1411 87.8793 5.9375 86.6861 5.9375H82.5384V30H76.3878ZM107.808 30.4119C106.416 30.4119 105.176 30.1705 104.087 29.6875C102.998 29.1951 102.136 28.4706 101.501 27.5142C100.876 26.5483 100.564 25.3456 100.564 23.9062C100.564 22.6941 100.786 21.6761 101.232 20.8523C101.677 20.0284 102.283 19.3655 103.05 18.8636C103.817 18.3617 104.688 17.983 105.663 17.7273C106.648 17.4716 107.68 17.2917 108.76 17.1875C110.029 17.0549 111.052 16.9318 111.828 16.8182C112.605 16.6951 113.168 16.5152 113.518 16.2784C113.869 16.0417 114.044 15.6913 114.044 15.2273V15.142C114.044 14.2424 113.76 13.5464 113.192 13.054C112.633 12.5616 111.838 12.3153 110.805 12.3153C109.716 12.3153 108.85 12.5568 108.206 13.0398C107.562 13.5133 107.136 14.1098 106.928 14.8295L101.331 14.375C101.615 13.0492 102.174 11.9034 103.007 10.9375C103.84 9.96212 104.915 9.21401 106.232 8.69318C107.557 8.16288 109.091 7.89773 110.834 7.89773C112.046 7.89773 113.206 8.03977 114.314 8.32386C115.431 8.60795 116.421 9.0483 117.283 9.64489C118.154 10.2415 118.84 11.0085 119.342 11.946C119.844 12.8741 120.095 13.9867 120.095 15.2841V30H114.357V26.9744H114.186C113.836 27.6562 113.367 28.2576 112.78 28.7784C112.193 29.2898 111.487 29.6922 110.663 29.9858C109.839 30.2699 108.888 30.4119 107.808 30.4119ZM109.541 26.2358C110.431 26.2358 111.217 26.0606 111.899 25.7102C112.581 25.3504 113.116 24.8674 113.504 24.2614C113.893 23.6553 114.087 22.9687 114.087 22.2017V19.8864C113.897 20.0095 113.637 20.1231 113.305 20.2273C112.983 20.322 112.619 20.4119 112.212 20.4972C111.804 20.5729 111.397 20.6439 110.99 20.7102C110.583 20.767 110.214 20.8191 109.882 20.8665C109.172 20.9706 108.552 21.1364 108.021 21.3636C107.491 21.5909 107.079 21.8987 106.786 22.2869C106.492 22.6657 106.345 23.1392 106.345 23.7074C106.345 24.5312 106.643 25.161 107.24 25.5966C107.846 26.0227 108.613 26.2358 109.541 26.2358ZM136.395 8.18182V12.7273H123.256V8.18182H136.395ZM126.239 2.95455H132.29V23.2955C132.29 23.8542 132.375 24.2898 132.545 24.6023C132.716 24.9053 132.953 25.1184 133.256 25.2415C133.568 25.3646 133.928 25.4261 134.335 25.4261C134.619 25.4261 134.903 25.4025 135.188 25.3551C135.472 25.2983 135.689 25.2557 135.841 25.2273L136.793 29.7301C136.49 29.8248 136.063 29.9337 135.514 30.0568C134.965 30.1894 134.297 30.2699 133.511 30.2983C132.053 30.3551 130.775 30.161 129.676 29.7159C128.587 29.2708 127.74 28.5795 127.134 27.642C126.527 26.7045 126.229 25.5208 126.239 24.0909V2.95455ZM146.857 17.3864V30H140.805V0.90909H146.686V12.0312H146.942C147.434 10.7434 148.23 9.73485 149.328 9.00568C150.427 8.26705 151.804 7.89773 153.462 7.89773C154.977 7.89773 156.298 8.22917 157.425 8.89205C158.561 9.54545 159.442 10.4877 160.067 11.7188C160.701 12.9403 161.014 14.4034 161.004 16.108V30H154.953V17.1875C154.963 15.8428 154.622 14.7964 153.93 14.0483C153.249 13.3002 152.292 12.9261 151.061 12.9261C150.237 12.9261 149.508 13.1013 148.874 13.4517C148.249 13.8021 147.756 14.3134 147.396 14.9858C147.046 15.6487 146.866 16.4489 146.857 17.3864Z" fill="white"/>
</svg>
